<svg width="1056" height="816" viewBox="0 0 1056 816" fill="none" xmlns="http://www.w3.org/2000/svg">
<g clip-path="url(#clip0_28_2)">
<path fill-rule="evenodd" clip-rule="evenodd" d="M752.097 315.197C750.432 325.198 723.207 334.124 741.05 351.253C737.672 338.053 742.978 334.495 749.852 325.383C745.66 331.479 738.019 343.638 743.431 351.071C743.431 351.071 763.93 344.19 752.098 315.197H752.097Z" fill="#00A33D"/>
<path fill-rule="evenodd" clip-rule="evenodd" d="M282.553 399.125C282.553 311.921 331.863 236.227 404.121 198.417C416.603 191.878 429.777 186.474 443.496 182.341C494.749 166.894 574.31 174.329 587.126 229.767C553.468 187.132 525.39 184.003 483.778 189.777C510.455 194.754 527.722 207.752 535.576 228.767C556.772 257.027 587.811 263.041 628.694 246.81C618.779 220.221 602.977 197.239 578.708 183.692L578.809 183.721L578.681 183.678C556.044 171.049 519.931 168.224 493.812 168.224C361.387 168.224 254.035 275.576 254.035 408C254.035 540.423 361.387 647.776 493.812 647.776C614.172 647.776 713.824 559.091 730.983 443.5C710.349 547.283 618.779 625.512 508.939 625.512C383.911 625.512 282.552 524.153 282.552 399.125H282.553Z" fill="#373435"/>
<path fill-rule="evenodd" clip-rule="evenodd" d="M500.766 175.463C540.439 177.219 578.59 192.838 587.127 229.766C561.333 197.094 538.817 187.622 510.974 187.578C546.538 188.778 562.949 206.045 593.331 241.547C585.238 198.495 561.245 176.445 500.777 175.455L500.767 175.463H500.766Z" fill="#41A72A"/>
<path fill-rule="evenodd" clip-rule="evenodd" d="M282.553 399.125C282.553 311.921 331.863 236.227 404.121 198.417C416.604 191.878 429.777 186.474 443.496 182.341C494.749 166.894 574.31 174.329 587.126 229.767C553.468 187.132 525.39 184.003 483.778 189.777C523.182 197.124 518.307 207.499 537.537 231.281C558.668 257.37 589.053 262.548 628.695 246.81C618.78 220.221 602.978 197.239 578.709 183.692L578.81 183.721L578.682 183.678C577.754 183.157 576.8 182.659 575.827 182.168C553.322 173.953 529.177 169.149 504.015 168.369L501.268 168.303C499.762 168.275 498.256 168.246 496.743 168.246C369.46 168.246 266.278 271.426 266.278 398.709C266.278 525.993 369.46 629.174 496.743 629.174C523.057 629.174 548.338 624.753 571.893 616.632C551.905 622.408 530.784 625.512 508.938 625.512C383.91 625.512 282.551 524.153 282.551 399.125H282.553Z" fill="url(#paint0_linear_28_2)"/>
<path d="M352.306 384.673C356.958 384.673 360.53 383.593 363.022 381.433C365.514 379.273 366.76 375.977 366.76 371.547C366.76 367.337 365.459 364.098 362.856 361.827C360.253 359.556 356.46 358.421 351.474 358.421C349.702 358.421 348.234 358.449 347.071 358.504C345.908 358.559 344.717 358.698 343.499 358.92V384.674H352.305L352.306 384.673ZM343.666 438.008C342.447 438.34 340.537 438.672 337.933 439.004C335.331 439.336 332.755 439.502 330.207 439.502C327.66 439.502 325.417 439.308 323.479 438.921C321.54 438.533 319.907 437.841 318.577 436.844C317.247 435.848 316.251 434.462 315.587 432.69C314.921 430.918 314.589 428.592 314.589 425.712V347.454C314.589 345.128 315.226 343.328 316.5 342.054C317.773 340.78 319.518 339.755 321.733 338.98C325.5 337.65 329.792 336.682 334.61 336.072C339.428 335.462 344.274 335.158 349.148 335.158C364.434 335.158 376.12 338.426 384.206 344.961C392.292 351.496 396.335 360.358 396.335 371.545C396.335 376.973 395.477 381.875 393.759 386.249C392.043 390.625 389.495 394.391 386.117 397.548C382.739 400.704 378.474 403.141 373.323 404.858C368.172 406.574 362.219 407.434 355.461 407.434H343.664V438.006L343.666 438.008ZM490.046 398.297C490.046 405.165 488.994 411.285 486.89 416.657C484.785 422.029 481.822 426.543 478 430.199C474.179 433.854 469.61 436.623 464.292 438.507C458.976 440.39 453.05 441.332 446.514 441.332C439.979 441.332 434.052 440.335 428.736 438.342C423.419 436.348 418.85 433.496 415.028 429.785C411.206 426.075 408.244 421.561 406.14 416.244C404.034 410.927 402.982 404.945 402.982 398.299C402.982 391.764 404.034 385.837 406.14 380.521C408.244 375.204 411.207 370.691 415.028 366.979C418.85 363.269 423.419 360.416 428.736 358.423C434.053 356.429 439.979 355.432 446.514 355.432C453.049 355.432 458.976 356.457 464.292 358.506C469.61 360.556 474.179 363.436 478 367.146C481.822 370.857 484.785 375.371 486.89 380.688C488.994 386.005 490.046 391.876 490.046 398.3V398.297ZM431.893 398.297C431.893 405.055 433.195 410.233 435.798 413.833C438.4 417.433 442.028 419.233 446.68 419.233C451.332 419.233 454.905 417.405 457.397 413.75C459.889 410.096 461.135 404.944 461.135 398.298C461.135 391.652 459.861 386.53 457.313 382.93C454.765 379.33 451.165 377.53 446.513 377.53C441.861 377.53 438.261 379.33 435.713 382.93C433.165 386.53 431.892 391.653 431.892 398.298L431.893 398.297ZM582.76 424.051C582.206 429.257 580.684 433.245 578.192 436.014C575.7 438.783 572.072 440.168 567.308 440.168C563.764 440.168 560.606 439.309 557.838 437.592C555.068 435.875 552.078 432.968 548.866 428.868L532.416 408.266V438.506C531.198 438.728 529.398 439.032 527.016 439.42C524.634 439.808 522.225 440.002 519.788 440.002C517.351 440.002 515.164 439.836 513.225 439.503C511.286 439.171 509.652 438.506 508.323 437.509C506.994 436.512 505.969 435.155 505.249 433.438C504.529 431.722 504.169 429.478 504.169 426.709V330.507C505.387 330.175 507.187 329.815 509.569 329.427C511.951 329.039 514.359 328.845 516.797 328.845C519.233 328.845 521.421 329.011 523.359 329.343C525.298 329.675 526.932 330.34 528.261 331.337C529.591 332.335 530.615 333.691 531.335 335.409C532.055 337.125 532.415 339.369 532.415 342.137V386.002L560.993 356.759C566.753 356.759 571.378 358.033 574.867 360.581C578.357 363.129 580.101 366.341 580.101 370.217C580.101 371.879 579.825 373.402 579.271 374.787C578.717 376.171 577.859 377.583 576.695 379.023C575.532 380.463 574.037 381.987 572.209 383.592C570.381 385.198 568.249 387.054 565.812 389.158L556.175 397.466L582.759 424.05L582.76 424.051ZM630.945 420.729C632.828 420.729 634.905 420.535 637.176 420.147C639.446 419.759 641.136 419.233 642.244 418.569V405.276L630.281 406.273C627.18 406.495 624.632 407.159 622.639 408.267C620.645 409.375 619.648 411.036 619.648 413.251C619.648 415.467 620.507 417.267 622.224 418.651C623.94 420.036 626.848 420.728 630.947 420.728L630.945 420.729ZM629.615 355.43C635.597 355.43 641.052 356.04 645.981 357.258C650.911 358.476 655.119 360.332 658.609 362.824C662.099 365.316 664.785 368.474 666.667 372.295C668.55 376.116 669.492 380.63 669.492 385.836V423.055C669.492 425.935 668.689 428.289 667.083 430.116C665.477 431.944 663.566 433.523 661.351 434.852C654.151 439.172 644.015 441.332 630.945 441.332C625.074 441.332 619.785 440.778 615.077 439.67C610.369 438.563 606.326 436.901 602.948 434.685C599.57 432.47 596.966 429.645 595.139 426.211C593.311 422.777 592.397 418.789 592.397 414.249C592.397 406.606 594.667 400.735 599.209 396.636C603.751 392.538 610.785 389.99 620.311 388.994L642.077 386.668V385.505C642.077 382.293 640.665 379.994 637.84 378.61C635.016 377.224 630.945 376.533 625.628 376.533C621.419 376.533 617.32 376.976 613.332 377.863C609.345 378.749 605.745 379.857 602.532 381.185C601.092 380.188 599.874 378.665 598.877 376.617C597.879 374.567 597.382 372.435 597.382 370.219C597.382 367.339 598.074 365.041 599.459 363.324C600.843 361.607 602.975 360.14 605.855 358.921C609.067 357.703 612.861 356.816 617.237 356.263C621.612 355.709 625.739 355.432 629.615 355.432V355.43ZM715.018 438.507C713.91 438.839 712.165 439.172 709.784 439.504C707.402 439.836 704.938 440.003 702.39 440.003C699.953 440.003 697.765 439.836 695.827 439.504C693.889 439.172 692.255 438.507 690.925 437.51C689.596 436.513 688.572 435.156 687.852 433.439C687.132 431.723 686.772 429.479 686.772 426.71V376.864C686.772 374.316 687.242 372.129 688.184 370.301C689.125 368.473 690.482 366.839 692.254 365.399C694.026 363.959 696.214 362.657 698.818 361.495C701.42 360.331 704.218 359.307 707.208 358.421C710.198 357.535 713.3 356.843 716.513 356.344C719.725 355.846 722.938 355.596 726.15 355.596C731.467 355.596 735.676 356.621 738.778 358.67C741.879 360.72 743.43 364.07 743.43 368.723C743.43 370.273 743.208 371.796 742.764 373.291C742.322 374.787 741.768 376.143 741.103 377.363C738.777 377.363 736.395 377.473 733.958 377.695C731.521 377.916 729.14 378.249 726.814 378.692C724.488 379.135 722.3 379.606 720.251 380.104C718.201 380.603 716.457 381.184 715.017 381.849V438.507H715.018Z" fill="#373435"/>
<path d="M361.139 492.14C361.139 493.802 360.844 495.035 360.254 495.838C359.665 496.642 358.727 497.419 357.441 498.17C356.691 498.598 355.752 499.014 354.627 499.416C353.502 499.818 352.268 500.166 350.929 500.461C349.589 500.756 348.182 500.984 346.709 501.145C345.235 501.306 343.774 501.386 342.327 501.386C338.468 501.386 334.851 500.864 331.474 499.818C328.097 498.773 325.163 497.192 322.67 495.075C320.178 492.957 318.208 490.318 316.762 487.156C315.315 483.994 314.591 480.322 314.591 476.142C314.591 471.747 315.382 467.915 316.962 464.645C318.543 461.375 320.633 458.655 323.233 456.485C325.833 454.314 328.807 452.693 332.157 451.62C335.507 450.548 338.95 450.012 342.488 450.012C347.58 450.012 351.612 450.83 354.588 452.464C357.562 454.099 359.05 456.229 359.05 458.855C359.05 460.249 358.701 461.455 358.004 462.473C357.307 463.492 356.504 464.295 355.592 464.886C354.252 464.081 352.577 463.291 350.567 462.515C348.557 461.737 346.293 461.348 343.774 461.348C339.272 461.348 335.695 462.635 333.041 465.207C330.389 467.78 329.062 471.345 329.062 475.9C329.062 478.365 329.424 480.495 330.147 482.292C330.871 484.087 331.849 485.561 333.082 486.713C334.314 487.865 335.735 488.723 337.343 489.286C338.951 489.849 340.666 490.131 342.489 490.131C343.668 490.131 344.713 490.023 345.624 489.809C346.535 489.595 347.232 489.354 347.715 489.085V481.528H339.112C338.791 480.939 338.483 480.161 338.188 479.196C337.893 478.232 337.745 477.213 337.745 476.142C337.745 474.212 338.188 472.819 339.071 471.961C339.955 471.104 341.095 470.675 342.488 470.675H356.075C357.683 470.675 358.929 471.117 359.813 472.001C360.697 472.885 361.14 474.132 361.14 475.74V492.14H361.139ZM405.268 484.342V499.778C404.678 499.939 403.754 500.1 402.494 500.26C401.235 500.421 399.989 500.502 398.756 500.502C397.524 500.502 396.438 500.408 395.501 500.22C394.563 500.033 393.785 499.698 393.169 499.215C392.553 498.733 392.083 498.063 391.762 497.205C391.44 496.348 391.28 495.223 391.28 493.829V455.963C391.28 454.837 391.588 453.966 392.204 453.349C392.82 452.733 393.665 452.237 394.737 451.861C396.559 451.218 398.676 450.75 401.088 450.455C403.5 450.16 406.072 450.012 408.805 450.012C416.202 450.012 421.776 451.567 425.528 454.675C429.279 457.784 431.155 461.991 431.155 467.297C431.155 470.62 430.298 473.46 428.582 475.819C426.867 478.178 424.831 480 422.472 481.286C424.402 483.912 426.304 486.378 428.18 488.682C430.056 490.987 431.53 493.077 432.602 494.953C432.066 496.829 431.088 498.263 429.667 499.255C428.246 500.246 426.652 500.742 424.884 500.742C423.705 500.742 422.686 500.607 421.829 500.34C420.971 500.072 420.221 499.696 419.578 499.214C418.934 498.732 418.345 498.142 417.809 497.446C417.274 496.749 416.764 495.999 416.282 495.195L409.529 484.341H405.268V484.342ZM410.333 473.65C412.369 473.65 413.977 473.127 415.156 472.082C416.335 471.036 416.925 469.496 416.925 467.46C416.925 465.423 416.268 463.883 414.955 462.837C413.642 461.792 411.565 461.269 408.725 461.269C407.92 461.269 407.278 461.296 406.795 461.349C406.313 461.403 405.777 461.484 405.187 461.59V473.65H410.333ZM461.135 458.857C461.135 456.553 461.805 454.73 463.145 453.391C464.485 452.051 466.308 451.38 468.612 451.38H495.142C495.517 451.97 495.852 452.747 496.147 453.712C496.442 454.677 496.59 455.696 496.59 456.767C496.59 458.803 496.147 460.251 495.263 461.108C494.379 461.965 493.213 462.395 491.766 462.395H474.803V469.871H492.892C493.267 470.46 493.602 471.224 493.897 472.163C494.192 473.1 494.34 474.106 494.34 475.178C494.34 477.214 493.91 478.662 493.053 479.519C492.196 480.376 491.044 480.805 489.596 480.805H474.804V489.247H495.465C495.84 489.836 496.175 490.614 496.47 491.579C496.764 492.543 496.912 493.562 496.912 494.633C496.912 496.669 496.47 498.131 495.586 499.015C494.701 499.899 493.536 500.341 492.088 500.341H468.612C466.308 500.341 464.485 499.671 463.146 498.331C461.806 496.991 461.136 495.169 461.136 492.865V458.858L461.135 458.857ZM526.087 458.857C526.087 456.553 526.757 454.73 528.097 453.391C529.437 452.051 531.259 451.38 533.563 451.38H560.094C560.469 451.97 560.804 452.747 561.099 453.712C561.394 454.677 561.541 455.696 561.541 456.767C561.541 458.803 561.099 460.251 560.215 461.108C559.331 461.965 558.165 462.395 556.717 462.395H539.754V469.871H557.844C558.219 470.46 558.554 471.224 558.849 472.163C559.143 473.1 559.291 474.106 559.291 475.178C559.291 477.214 558.862 478.662 558.005 479.519C557.147 480.376 555.996 480.805 554.548 480.805H539.755V489.247H560.416C560.792 489.836 561.127 490.614 561.421 491.579C561.716 492.543 561.864 493.562 561.864 494.633C561.864 496.669 561.421 498.131 560.537 499.015C559.653 499.899 558.488 500.341 557.04 500.341H533.564C531.26 500.341 529.437 499.671 528.098 498.331C526.758 496.991 526.088 495.169 526.088 492.865V458.858L526.087 458.857ZM635.175 498.411C634.425 499.161 633.34 499.738 631.919 500.139C630.498 500.541 628.797 500.742 626.814 500.742C624.83 500.742 622.955 500.447 621.186 499.858C619.417 499.268 617.97 497.847 616.845 495.596L608.886 479.357C608.082 477.695 607.358 476.127 606.715 474.654C606.072 473.18 605.375 471.478 604.624 469.548L604.142 469.629C604.356 472.524 604.477 475.471 604.504 478.473C604.531 481.474 604.545 484.422 604.545 487.316V499.777C603.955 499.938 603.058 500.099 601.851 500.259C600.645 500.42 599.453 500.501 598.273 500.501C597.094 500.501 596.049 500.42 595.138 500.259C594.227 500.099 593.476 499.777 592.887 499.294C592.298 498.812 591.842 498.155 591.52 497.324C591.199 496.494 591.038 495.408 591.038 494.069V453.872C591.789 452.799 592.941 451.996 594.495 451.46C596.05 450.924 597.711 450.657 599.48 450.657C601.463 450.657 603.351 450.965 605.148 451.581C606.943 452.197 608.377 453.604 609.448 455.801L617.487 472.042C618.291 473.703 619.015 475.271 619.658 476.745C620.301 478.218 620.998 479.92 621.749 481.85L622.151 481.769C621.937 478.875 621.803 475.98 621.749 473.087C621.695 470.193 621.668 467.298 621.668 464.405V451.38C622.258 451.22 623.155 451.059 624.362 450.899C625.568 450.737 626.76 450.658 627.94 450.658C630.298 450.658 632.094 451.073 633.326 451.904C634.559 452.734 635.175 454.463 635.175 457.09V498.412V498.411ZM680.35 480.724C677.991 479.92 675.848 479.102 673.918 478.272C671.988 477.442 670.327 476.436 668.934 475.257C667.54 474.078 666.455 472.67 665.677 471.036C664.901 469.402 664.511 467.406 664.511 465.047C664.511 460.491 666.267 456.847 669.777 454.114C673.287 451.38 678.204 450.013 684.529 450.013C686.834 450.013 688.978 450.174 690.961 450.495C692.944 450.817 694.646 451.313 696.066 451.982C697.486 452.652 698.599 453.51 699.402 454.555C700.206 455.601 700.608 456.82 700.608 458.214C700.608 459.608 700.286 460.8 699.643 461.791C699 462.782 698.222 463.626 697.312 464.323C696.133 463.572 694.551 462.916 692.569 462.353C690.586 461.791 688.415 461.509 686.057 461.509C683.646 461.509 681.876 461.844 680.751 462.515C679.626 463.185 679.063 464.028 679.063 465.047C679.063 465.851 679.411 466.507 680.108 467.017C680.805 467.527 681.851 467.995 683.244 468.424L687.505 469.791C692.543 471.399 696.415 473.449 699.122 475.941C701.828 478.433 703.182 481.824 703.182 486.111C703.182 490.668 701.387 494.352 697.795 497.166C694.204 499.98 688.925 501.386 681.957 501.386C679.492 501.386 677.2 501.185 675.084 500.783C672.967 500.381 671.118 499.791 669.537 499.014C667.956 498.237 666.723 497.272 665.839 496.119C664.955 494.967 664.512 493.641 664.512 492.14C664.512 490.586 664.968 489.259 665.879 488.16C666.79 487.062 667.782 486.217 668.853 485.628C670.354 486.806 672.189 487.825 674.361 488.682C676.531 489.539 678.902 489.969 681.475 489.969C684.102 489.969 685.951 489.566 687.023 488.763C688.095 487.959 688.631 487.02 688.631 485.949C688.631 484.877 688.202 484.06 687.345 483.497C686.487 482.935 685.282 482.386 683.726 481.849L680.35 480.724Z" fill="#01B04A"/>
<path d="M337.58 529.829V518.541H333.11V515.277H346.144V518.541H341.696V529.829H337.579H337.58ZM350.182 529.829V515.277H361.595V518.458H354.256V526.648H361.864V529.829H350.181H350.182ZM353.965 523.987V520.91H360.721V523.987H353.965ZM371.765 530.12C370.572 530.12 369.426 529.971 368.324 529.672C367.222 529.375 366.324 528.99 365.632 528.518L366.983 525.484C367.635 525.9 368.387 526.242 369.239 526.513C370.092 526.783 370.94 526.918 371.786 526.918C372.354 526.918 372.811 526.866 373.158 526.762C373.504 526.658 373.757 526.52 373.916 526.346C374.076 526.173 374.155 525.969 374.155 525.733C374.155 525.4 374.003 525.136 373.698 524.942C373.393 524.749 372.998 524.588 372.514 524.464C372.028 524.34 371.491 524.215 370.903 524.09C370.314 523.965 369.725 523.806 369.135 523.612C368.546 523.418 368.009 523.166 367.524 522.854C367.04 522.542 366.644 522.133 366.34 521.627C366.035 521.121 365.883 520.479 365.883 519.704C365.883 518.831 366.122 518.041 366.6 517.334C367.078 516.627 367.795 516.059 368.751 515.629C369.708 515.198 370.9 514.984 372.327 514.984C373.284 514.984 374.222 515.092 375.144 515.306C376.066 515.521 376.886 515.836 377.607 516.252L376.339 519.307C375.646 518.933 374.961 518.653 374.281 518.465C373.602 518.278 372.944 518.185 372.306 518.185C371.738 518.185 371.28 518.244 370.934 518.362C370.588 518.48 370.338 518.635 370.186 518.829C370.033 519.023 369.957 519.245 369.957 519.494C369.957 519.813 370.107 520.067 370.404 520.254C370.702 520.441 371.098 520.594 371.589 520.711C372.082 520.828 372.622 520.95 373.211 521.075C373.8 521.199 374.388 521.356 374.978 521.542C375.567 521.729 376.104 521.979 376.589 522.291C377.074 522.603 377.465 523.012 377.764 523.518C378.061 524.024 378.21 524.657 378.21 525.42C378.21 526.264 377.971 527.045 377.493 527.758C377.015 528.472 376.301 529.044 375.351 529.474C374.402 529.904 373.207 530.118 371.766 530.118L371.765 530.12ZM385.489 529.829V518.541H381.019V515.277H394.053V518.541H389.604V529.829H385.488H385.489ZM407.238 529.829V518.541H402.768V515.277H415.802V518.541H411.353V529.829H407.237H407.238ZM429.568 529.829V515.277H433.684V529.829H429.568ZM419.84 529.829V515.277H423.956V529.829H419.84ZM423.665 524.153V520.744H429.86V524.153H423.665ZM439.094 529.829V515.277H450.507V518.458H443.169V526.648H450.777V529.829H439.093H439.094ZM442.878 523.987V520.91H449.633V523.987H442.878ZM461.612 529.829V515.277H468.119C470.24 515.277 471.872 515.759 473.015 516.722C474.158 517.686 474.73 518.998 474.73 520.662C474.73 521.757 474.467 522.703 473.94 523.5C473.413 524.296 472.668 524.906 471.705 525.329C470.741 525.752 469.595 525.964 468.264 525.964H463.898L465.728 524.238V529.83H461.611L461.612 529.829ZM470.613 529.829L466.996 524.528H471.382L475.02 529.829H470.612H470.613ZM465.728 524.674L463.898 522.782H468.014C468.874 522.782 469.515 522.594 469.937 522.22C470.361 521.846 470.572 521.326 470.572 520.661C470.572 519.982 470.361 519.455 469.937 519.081C469.515 518.706 468.874 518.519 468.014 518.519H463.898L465.728 516.628V524.673V524.674ZM479.493 529.829V515.277H490.906V518.458H483.567V526.648H491.175V529.829H479.492H479.493ZM483.276 523.987V520.91H490.032V523.987H483.276ZM494.215 529.829L500.638 515.277H504.691L511.136 529.829H506.853L501.823 517.294H503.444L498.413 529.829H494.214H494.215ZM497.727 527.002L498.787 523.966H505.897L506.957 527.002H497.726H497.727ZM514.799 529.829V515.277H518.916V526.565H525.858V529.829H514.799ZM536.028 529.829V515.277H547.441V518.458H540.145V529.829H536.028ZM539.854 524.84V521.659H546.568V524.84H539.854ZM551.873 529.829V515.277H558.38C560.501 515.277 562.133 515.759 563.276 516.722C564.42 517.686 564.991 518.998 564.991 520.662C564.991 521.757 564.728 522.703 564.201 523.5C563.675 524.296 562.93 524.906 561.966 525.329C561.002 525.752 559.856 525.964 558.525 525.964H554.159L555.989 524.238V529.83H551.872L551.873 529.829ZM560.874 529.829L557.257 524.528H561.643L565.281 529.829H560.873H560.874ZM555.989 524.674L554.159 522.782H558.276C559.135 522.782 559.776 522.594 560.198 522.22C560.622 521.846 560.833 521.326 560.833 520.661C560.833 519.982 560.622 519.455 560.198 519.081C559.776 518.706 559.135 518.519 558.276 518.519H554.159L555.989 516.628V524.673V524.674ZM569.754 529.829V515.277H581.167V518.458H573.828V526.648H581.436V529.829H569.753H569.754ZM573.538 523.987V520.91H580.293V523.987H573.538ZM591.337 530.12C590.145 530.12 588.998 529.971 587.896 529.672C586.794 529.375 585.897 528.99 585.204 528.518L586.555 525.484C587.207 525.9 587.959 526.242 588.811 526.513C589.664 526.783 590.512 526.918 591.358 526.918C591.926 526.918 592.383 526.866 592.73 526.762C593.076 526.658 593.329 526.52 593.488 526.346C593.648 526.173 593.727 525.969 593.727 525.733C593.727 525.4 593.575 525.136 593.27 524.942C592.965 524.749 592.571 524.588 592.086 524.464C591.6 524.34 591.063 524.215 590.475 524.09C589.886 523.965 589.297 523.806 588.708 523.612C588.118 523.418 587.581 523.166 587.097 522.854C586.612 522.542 586.216 522.133 585.912 521.627C585.607 521.121 585.455 520.479 585.455 519.704C585.455 518.831 585.694 518.041 586.172 517.334C586.65 516.627 587.367 516.059 588.324 515.629C589.28 515.198 590.472 514.984 591.9 514.984C592.856 514.984 593.795 515.092 594.716 515.306C595.638 515.521 596.459 515.836 597.18 516.252L595.911 519.307C595.218 518.933 594.533 518.653 593.853 518.465C593.174 518.278 592.516 518.185 591.878 518.185C591.31 518.185 590.852 518.244 590.507 518.362C590.16 518.48 589.91 518.635 589.758 518.829C589.605 519.023 589.529 519.245 589.529 519.494C589.529 519.813 589.679 520.067 589.977 520.254C590.274 520.441 590.67 520.594 591.161 520.711C591.654 520.828 592.194 520.95 592.783 521.075C593.372 521.199 593.961 521.356 594.55 521.542C595.14 521.729 595.676 521.979 596.161 522.291C596.646 522.603 597.037 523.012 597.336 523.518C597.634 524.024 597.782 524.657 597.782 525.42C597.782 526.264 597.543 527.045 597.065 527.758C596.587 528.472 595.873 529.044 594.924 529.474C593.974 529.904 592.779 530.118 591.338 530.118L591.337 530.12ZM611.9 529.829V515.277H616.016V529.829H611.9ZM602.172 529.829V515.277H606.288V529.829H602.172ZM605.997 524.153V520.744H612.192V524.153H605.997ZM621.426 529.829V515.277H624.815L632.84 524.965H631.239V515.277H635.272V529.829H631.884L623.859 520.142H625.46V529.829H621.427H621.426ZM640.681 529.829V515.277H652.093V518.458H644.755V526.648H652.363V529.829H640.68H640.681ZM644.464 523.987V520.91H651.22V523.987H644.464ZM662.264 530.12C661.071 530.12 659.925 529.971 658.823 529.672C657.721 529.375 656.823 528.99 656.131 528.518L657.482 525.484C658.134 525.9 658.885 526.242 659.738 526.513C660.59 526.783 661.439 526.918 662.285 526.918C662.853 526.918 663.31 526.866 663.657 526.762C664.003 526.658 664.256 526.52 664.415 526.346C664.574 526.173 664.654 525.969 664.654 525.733C664.654 525.4 664.501 525.136 664.197 524.942C663.892 524.749 663.497 524.588 663.012 524.464C662.527 524.34 661.99 524.215 661.402 524.09C660.813 523.965 660.224 523.806 659.634 523.612C659.045 523.418 658.508 523.166 658.023 522.854C657.539 522.542 657.143 522.133 656.839 521.627C656.533 521.121 656.382 520.479 656.382 519.704C656.382 518.831 656.621 518.041 657.099 517.334C657.577 516.627 658.294 516.059 659.25 515.629C660.206 515.198 661.399 514.984 662.826 514.984C663.782 514.984 664.721 515.092 665.643 515.306C666.564 515.521 667.385 515.836 668.106 516.252L666.838 519.307C666.145 518.933 665.46 518.653 664.78 518.465C664.101 518.278 663.443 518.185 662.805 518.185C662.237 518.185 661.779 518.244 661.433 518.362C661.087 518.48 660.837 518.635 660.684 518.829C660.532 519.023 660.456 519.245 660.456 519.494C660.456 519.813 660.606 520.067 660.903 520.254C661.201 520.441 661.596 520.594 662.088 520.711C662.58 520.828 663.121 520.95 663.709 521.075C664.299 521.199 664.887 521.356 665.477 521.542C666.066 521.729 666.603 521.979 667.088 522.291C667.572 522.603 667.964 523.012 668.263 523.518C668.56 524.024 668.709 524.657 668.709 525.42C668.709 526.264 668.47 527.045 667.992 527.758C667.514 528.472 666.8 529.044 665.85 529.474C664.901 529.904 663.706 530.118 662.265 530.118L662.264 530.12ZM678.212 530.12C677.02 530.12 675.874 529.971 674.772 529.672C673.669 529.375 672.772 528.99 672.08 528.518L673.43 525.484C674.082 525.9 674.834 526.242 675.686 526.513C676.539 526.783 677.388 526.918 678.233 526.918C678.802 526.918 679.259 526.866 679.605 526.762C679.952 526.658 680.204 526.52 680.364 526.346C680.523 526.173 680.603 525.969 680.603 525.733C680.603 525.4 680.45 525.136 680.146 524.942C679.84 524.749 679.446 524.588 678.961 524.464C678.475 524.34 677.939 524.215 677.35 524.09C676.762 523.965 676.172 523.806 675.583 523.612C674.993 523.418 674.457 523.166 673.972 522.854C673.487 522.542 673.092 522.133 672.787 521.627C672.482 521.121 672.33 520.479 672.33 519.704C672.33 518.831 672.569 518.041 673.047 517.334C673.525 516.627 674.243 516.059 675.199 515.629C676.155 515.198 677.347 514.984 678.775 514.984C679.731 514.984 680.67 515.092 681.591 515.306C682.513 515.521 683.334 515.836 684.055 516.252L682.787 519.307C682.093 518.933 681.408 518.653 680.728 518.465C680.05 518.278 679.391 518.185 678.754 518.185C678.185 518.185 677.727 518.244 677.382 518.362C677.035 518.48 676.786 518.635 676.633 518.829C676.48 519.023 676.404 519.245 676.404 519.494C676.404 519.813 676.554 520.067 676.852 520.254C677.149 520.441 677.545 520.594 678.036 520.711C678.529 520.828 679.069 520.95 679.658 521.075C680.247 521.199 680.836 521.356 681.425 521.542C682.015 521.729 682.551 521.979 683.036 522.291C683.521 522.603 683.913 523.012 684.211 523.518C684.509 524.024 684.658 524.657 684.658 525.42C684.658 526.264 684.419 527.045 683.94 527.758C683.462 528.472 682.748 529.044 681.799 529.474C680.849 529.904 679.654 530.118 678.213 530.118L678.212 530.12Z" fill="#373435"/>
</g>
<defs>
<linearGradient id="paint0_linear_28_2" x1="278.873" y1="602.661" x2="702.822" y2="178.712" gradientUnits="userSpaceOnUse">
<stop stop-color="#009933"/>
<stop offset="1" stop-color="#02C761"/>
</linearGradient>
<clipPath id="clip0_28_2">
<rect width="1056" height="816" fill="white"/>
</clipPath>
</defs>
</svg>
